<svg xmlns="http://www.w3.org/2000/svg" width="26.657" height="31.897" viewBox="0 0 26.657 31.897">
  <g id="Appstore" transform="translate(214.685 -16.095)">
    <path id="Path_16425" data-name="Path 16425" d="M30.581,25.351a7.1,7.1,0,0,1,3.535-5.983,7.761,7.761,0,0,0-5.987-3.111c-2.548-.248-4.975,1.44-6.268,1.44s-3.288-1.4-5.4-1.368a8.064,8.064,0,0,0-6.773,3.939C6.8,25.074,8.947,32.195,11.761,36.095c1.375,1.906,3.016,4.051,5.167,3.973,2.074-.079,2.857-1.287,5.364-1.287S25.5,40.067,27.7,40.027c2.23-.039,3.644-1.943,5.008-3.856A17.053,17.053,0,0,0,34.973,31.7,6.989,6.989,0,0,1,30.581,25.351Z" transform="translate(-223 7.922)" fill="#fff"/>
    <path id="Path_16426" data-name="Path 16426" d="M33.446,9.949a7.7,7.7,0,0,0,1.818-5.575,7.825,7.825,0,0,0-5.144,2.644,7.323,7.323,0,0,0-1.853,5.4A6.482,6.482,0,0,0,33.446,9.949Z" transform="translate(-229.579 11.721)" fill="#fff"/>
  </g>
</svg>
