<svg xmlns="http://www.w3.org/2000/svg" width="28.315" height="21.896" viewBox="0 0 28.315 21.896">
  <g id="Group_120872" data-name="Group 120872" transform="translate(-9804.429 -4502.106)">
    <path id="_4120269_car_traffic_transport_transportation_vehicle_icon" data-name="4120269_car_traffic_transport_transportation_vehicle_icon" d="M27.525,18.559h-.6l-.535-1.426h.645a1.426,1.426,0,1,0,0-2.853H25.317L23.8,10.232A.357.357,0,0,0,23.466,10H6.349a.357.357,0,0,0-.335.232L4.5,14.279H2.783a1.426,1.426,0,1,0,0,2.853h.645l-.535,1.426h-.6A1.291,1.291,0,0,0,1,19.85v7.624a.357.357,0,0,0,.357.357V30.12A1.277,1.277,0,0,0,2.633,31.4H5.786A1.277,1.277,0,0,0,7.062,30.12V27.83H22.753V30.12A1.277,1.277,0,0,0,24.03,31.4h3.152a1.277,1.277,0,0,0,1.277-1.277V27.83a.357.357,0,0,0,.357-.357V19.85A1.291,1.291,0,0,0,27.525,18.559Zm-.492-3.566a.713.713,0,1,1,0,1.426h-.913l-.535-1.426ZM6.6,10.713H23.22l2.942,7.845H3.653ZM2.783,16.419a.713.713,0,0,1,0-1.426H4.231L3.7,16.419Zm-1.07,5.706H4.345a.221.221,0,0,1,.221.221v.984a.221.221,0,0,1-.221.221H1.713Zm4.636,8a.563.563,0,0,1-.563.563H2.633a.563.563,0,0,1-.563-.563V27.83H6.349Zm13.551-3H9.915V24.264H19.9Zm7.845,3a.563.563,0,0,1-.563.563H24.03a.563.563,0,0,1-.563-.563V27.83h4.279Zm.357-6.569H25.47a.221.221,0,0,1-.221-.221v-.984a.221.221,0,0,1,.221-.221H28.1Zm0-2.14H25.47a.938.938,0,0,0-.934.934v.984a.938.938,0,0,0,.934.934H28.1v2.853H20.613V23.908a.357.357,0,0,0-.357-.357H9.559a.357.357,0,0,0-.357.357v3.209H1.713V24.264H4.345a.938.938,0,0,0,.934-.934v-.984a.938.938,0,0,0-.934-.934H1.713V19.85a.581.581,0,0,1,.578-.578H27.525a.581.581,0,0,1,.578.578Z" transform="translate(9803.679 4492.356)" stroke="#000" stroke-width="0.5" opacity="0.7"/>
  </g>
</svg>
