<svg xmlns="http://www.w3.org/2000/svg" width="24" height="24" viewBox="0 0 24 24">
  <path id="sms_FILL0_wght400_GRAD0_opsz48" d="M21.22,14.71a1.179,1.179,0,1,1,.855-.345A1.161,1.161,0,0,1,21.22,14.71Zm-5.31,0a1.179,1.179,0,1,1,.855-.345A1.161,1.161,0,0,1,15.91,14.71Zm-5.1,0a1.179,1.179,0,1,1,.855-.345A1.161,1.161,0,0,1,10.81,14.71ZM28,28V5.8a1.744,1.744,0,0,0-.54-1.245A1.7,1.7,0,0,0,26.2,4H5.8a1.722,1.722,0,0,0-1.245.555A1.722,1.722,0,0,0,4,5.8V21.4a1.722,1.722,0,0,0,.555,1.245A1.722,1.722,0,0,0,5.8,23.2H23.2Zm-1.8-4.35L23.95,21.4H5.8V5.8H26.2Zm0-17.85h0V21.4h0V5.8Z" transform="translate(-4 -4)" fill="#fff"/>
</svg>
