<svg xmlns="http://www.w3.org/2000/svg" width="50" height="42.5" viewBox="0 0 50 42.5">
  <g id="Digital_Products_Mobile" data-name="Digital Products_Mobile" transform="translate(3.365 -1.134)">
    <path id="Path_16429" data-name="Path 16429" d="M18.2,20.635l-1.347-5.127m0,0-2.489,2.249.564-9.574,5.183,8ZM9.4,15.237a8.373,8.373,0,0,1-2.044-3.477,8.5,8.5,0,0,1-.195-4.048,8.412,8.412,0,0,1,1.7-3.664,8.2,8.2,0,0,1,3.193-2.414,8.048,8.048,0,0,1,7.676.771,8.285,8.285,0,0,1,2.67,3,8.47,8.47,0,0,1,.966,3.932M11.5,13.093a5.328,5.328,0,0,1-1.3-2.212A5.407,5.407,0,0,1,10.075,8.3a5.353,5.353,0,0,1,1.082-2.332,5.215,5.215,0,0,1,2.032-1.537,5.121,5.121,0,0,1,4.885.491,5.273,5.273,0,0,1,1.7,1.911,5.39,5.39,0,0,1,.614,2.5" transform="translate(4.453 0.636)" fill="none" stroke="#006cbb" stroke-linecap="round" stroke-linejoin="round" stroke-width="1"/>
    <path id="Path_16431" data-name="Path 16431" d="M23.908,14.73,19.754,9.357v6.407l1.273-1.629Z" transform="translate(-0.119 0.992)" fill="#006ec1" stroke="#0070c7" stroke-width="1"/>
    <text id="Digital_Products" data-name="Digital
Products" transform="translate(21.635 30.634)" fill="#f6821e" font-size="10" font-family="Montserrat-ExtraBold, Montserrat" font-weight="800"><tspan x="-17.725" y="0">Digital</tspan><tspan x="-24.15" y="10">Products</tspan></text>
  </g>
</svg>
