<svg xmlns="http://www.w3.org/2000/svg" width="21.182" height="27.502" viewBox="0 0 21.182 27.502">
  <g id="EduLoan" transform="translate(-9809.238 -4496.733)">
    <g id="_3586376_education_graduate_graduation_cap_icon" data-name="3586376_education_graduate_graduation cap_icon" transform="translate(9809.488 4496.985)">
      <path id="Path_16432" data-name="Path 16432" d="M19.763,8.434l3.389,1.49a5.891,5.891,0,0,0-1.022,3.33,5.959,5.959,0,1,0,10.925-3.3l2.98-1.4v5.667l-.906,1.928a.407.407,0,0,0,.029.409.5.5,0,0,0,.38.2h1.724a.354.354,0,0,0,.351-.2.407.407,0,0,0,.029-.409l-.789-1.928V8.171c0-.234-.029-.409-.438-.584-.088-.029-8.121-3.593-8.121-3.593a.372.372,0,0,0-.351,0L19.763,7.616a.458.458,0,0,0-.263.409A.441.441,0,0,0,19.763,8.434Zm13.379,4.82a5.083,5.083,0,0,1-10.166,0,5.177,5.177,0,0,1,.964-2.98l3.973,1.782a.54.54,0,0,0,.351,0L32.178,10.3A4.951,4.951,0,0,1,33.142,13.254Zm3.067,2.629.2-.438.175.438ZM28.118,4.87l7.1,3.155-7.1,3.155-7.1-3.155Z" transform="translate(-17.893 -3.95)" stroke="#000001" stroke-width="0.5"/>
      <path id="Path_16433" data-name="Path 16433" d="M24.341,59.8A10.36,10.36,0,0,0,14,70.141a.449.449,0,0,0,.438.438H34.244a.449.449,0,0,0,.438-.438A10.36,10.36,0,0,0,24.341,59.8Zm-9.435,9.9a9.46,9.46,0,0,1,18.9,0Z" transform="translate(-14 -43.579)" stroke="#000001" stroke-width="0.5"/>
    </g>
  </g>
</svg>
