<svg xmlns="http://www.w3.org/2000/svg" width="21.63" height="24" viewBox="0 0 21.63 24">
  <path id="share_FILL0_wght400_GRAD0_opsz48" d="M24.21,28a3.431,3.431,0,0,1-3.42-3.42,3.233,3.233,0,0,1,.045-.495,2.686,2.686,0,0,1,.135-.525l-9.09-5.28a3.428,3.428,0,0,1-1.11.825,3.1,3.1,0,0,1-1.35.315A3.431,3.431,0,0,1,6,16a3.279,3.279,0,0,1,1.005-2.43,3.414,3.414,0,0,1,3.735-.72,3.621,3.621,0,0,1,1.14.78l9.09-5.22a2.09,2.09,0,0,1-.135-.48,3.108,3.108,0,0,1-.045-.51,3.279,3.279,0,0,1,1-2.43A3.413,3.413,0,0,1,27.63,7.42a3.318,3.318,0,0,1-.99,2.415,3.279,3.279,0,0,1-2.43,1,4.024,4.024,0,0,1-1.335-.225A2.562,2.562,0,0,1,21.78,9.88l-9.09,5.04a5.544,5.544,0,0,1,.1.555A3.834,3.834,0,0,1,12.84,16a2.449,2.449,0,0,1-.045.45q-.045.24-.1.48l9.09,5.16a3.569,3.569,0,0,1,1.05-.675,3.5,3.5,0,0,1,1.38-.255A3.426,3.426,0,0,1,26.64,27,3.279,3.279,0,0,1,24.21,28Zm0-18.96a1.589,1.589,0,0,0,1.62-1.62,1.62,1.62,0,1,0-3.24,0,1.589,1.589,0,0,0,1.62,1.62ZM9.42,17.62a1.589,1.589,0,1,0-1.155-.465A1.568,1.568,0,0,0,9.42,17.62ZM24.21,26.2a1.589,1.589,0,1,0-1.155-.465A1.568,1.568,0,0,0,24.21,26.2Zm0-18.78ZM9.42,16Zm14.79,8.58Z" transform="translate(-6 -4)" fill="#fff"/>
</svg>
