<svg xmlns="http://www.w3.org/2000/svg" width="17.615" height="17.615" viewBox="0 0 17.615 17.615">
  <g id="Group_118949" data-name="Group 118949" transform="translate(-1006 -92)">
    <path id="search_FILL0_wght400_GRAD0_opsz48" d="M22.44,23.565l-5.418-5.418a5.881,5.881,0,0,1-1.868,1.081,6.605,6.605,0,0,1-2.269.387,6.645,6.645,0,0,1-4.884-2,6.583,6.583,0,0,1-2-4.831A6.583,6.583,0,0,1,8,7.952a6.614,6.614,0,0,1,4.857-2,6.539,6.539,0,0,1,4.817,2A6.831,6.831,0,0,1,19.291,15a6.774,6.774,0,0,1-1.121,2l5.445,5.391Zm-9.581-5.551a5,5,0,0,0,3.683-1.535,5.061,5.061,0,0,0,1.521-3.7,5.061,5.061,0,0,0-1.521-3.7,5,5,0,0,0-3.683-1.535A5.07,5.07,0,0,0,9.136,9.086a5.038,5.038,0,0,0-1.535,3.7,5.038,5.038,0,0,0,1.535,3.7A5.07,5.07,0,0,0,12.859,18.013Z" transform="translate(1000 86.05)" fill="#051e33"/>
  </g>
</svg>
