<svg xmlns="http://www.w3.org/2000/svg" width="19.037" height="24" viewBox="0 0 19.037 24">
  <path id="hand-thumbs-up" d="M12.479.07A2.374,2.374,0,0,0,9.566,2.238a17.127,17.127,0,0,1-.653,3.954,8.3,8.3,0,0,1-1.588,2.5,6.959,6.959,0,0,1-3.253,2.153A2.668,2.668,0,0,0,2,13.313v6.108A2.419,2.419,0,0,0,4.211,21.78a6.543,6.543,0,0,1,3.157,1.1l.073.046a7.511,7.511,0,0,0,1.481.739A6.762,6.762,0,0,0,11.16,24H16.5a3.294,3.294,0,0,0,2.953-1.624,2.84,2.84,0,0,0,.388-1.392,2.128,2.128,0,0,0-.118-.708,4.873,4.873,0,0,0,.745-1.376,2.492,2.492,0,0,0,.006-1.754,3.26,3.26,0,0,0,.243-.615,5.042,5.042,0,0,0,0-2.615,3.273,3.273,0,0,0-.211-.553,2.9,2.9,0,0,0,.357-2.647,3.164,3.164,0,0,0-1.832-1.942,9.77,9.77,0,0,0-3.841-.322q-.339.03-.676.076a14.3,14.3,0,0,0-.095-6.884A2.107,2.107,0,0,0,12.878.17Zm4.024,22.4H11.16a5.239,5.239,0,0,1-1.74-.25,5.883,5.883,0,0,1-1.185-.6l-.061-.037a8.036,8.036,0,0,0-3.8-1.325.9.9,0,0,1-.846-.84v-6.11a1.157,1.157,0,0,1,.947-.992A8.492,8.492,0,0,0,8.464,9.713a9.767,9.767,0,0,0,1.89-3.02,18.454,18.454,0,0,0,.736-4.351.847.847,0,0,1,1.018-.791l.4.1a.573.573,0,0,1,.44.389,12.733,12.733,0,0,1-.221,7.214.763.763,0,0,0,.908.983l0,0,.021,0,.089-.021a13.6,13.6,0,0,1,1.582-.24,8.28,8.28,0,0,1,3.221.25,1.655,1.655,0,0,1,.87.992,1.418,1.418,0,0,1-.406,1.56l-.539.539.539.54a1.137,1.137,0,0,1,.235.481,3.5,3.5,0,0,1,0,1.776,1.156,1.156,0,0,1-.235.481l-.539.539.539.54c.072.072.166.27.008.745a3.4,3.4,0,0,1-.771,1.229l-.539.539.539.54a.383.383,0,0,1,.063.26,1.322,1.322,0,0,1-.185.635,1.776,1.776,0,0,1-1.627.855Z" transform="translate(-2 0)" fill="#fff"/>
</svg>
