<svg xmlns="http://www.w3.org/2000/svg" width="17.271" height="17.286" viewBox="0 0 17.271 17.286">
  <g id="Group_118078" data-name="Group 118078" transform="translate(-1.833 -26.649)">
    <path id="Path_14696" data-name="Path 14696" d="M29.8,60.91a1.015,1.015,0,1,0,.72.3,1.015,1.015,0,0,0-.72-.3Z" transform="translate(-14.752 -31.176)" fill="#fff"/>
    <path id="Path_14697" data-name="Path 14697" d="M17.172,63.57a4.257,4.257,0,1,0,4.252,4.252,4.257,4.257,0,0,0-4.252-4.252Zm0,6.981A2.729,2.729,0,1,1,19.9,67.822a2.729,2.729,0,0,1-2.724,2.729Z" transform="translate(-6.629 -32.538)" fill="#fff"/>
    <path id="Path_14698" data-name="Path 14698" d="M15.887,71.876h-6.9a5.194,5.194,0,0,1-5.189-5.2v-6.9A5.194,5.194,0,0,1,8.989,54.59h6.9a5.194,5.194,0,0,1,5.184,5.189v6.9a5.194,5.194,0,0,1-5.184,5.2Zm-6.9-15.66a3.573,3.573,0,0,0-3.564,3.564v6.9A3.573,3.573,0,0,0,8.989,70.24h6.9a3.573,3.573,0,0,0,3.564-3.564v-6.9a3.573,3.573,0,0,0-3.564-3.564Z" transform="translate(-1.967 -27.941)" fill="#fff"/>
  </g>
</svg>
