<svg id="Koo1521px" xmlns="http://www.w3.org/2000/svg" width="14.683" height="21.379" viewBox="0 0 14.683 21.379">
  <path id="Path_16361" data-name="Path 16361" d="M345.7,302.205a1.459,1.459,0,0,1-.551-.205c.269.359.725,1.006.878,1.225a.016.016,0,0,0,.016.007.017.017,0,0,0,.014-.013,2.755,2.755,0,0,0,.079-.98C346,302.233,345.857,302.222,345.7,302.205Z" transform="translate(-334.746 -292.922)" fill="#0075be"/>
  <path id="Path_16362" data-name="Path 16362" d="M339.9,286a7.562,7.562,0,0,0-.914-.3c-.1,0-.658.114-.993.185a1.53,1.53,0,0,0,.732.347c.98.109,1.451-.057,1.469-.125a.23.23,0,0,0-.022-.01C340.116,286.079,340.017,286.043,339.9,286Z" transform="translate(-327.102 -277.179)" fill="#0075be"/>
  <path id="Koo1521px-2" data-name="Koo1521px" d="M14.668,10.709a18.181,18.181,0,0,0-1.292-5.547l-.184-.524A3.723,3.723,0,0,0,9.8,1.972,1.546,1.546,0,0,1,9.844,1.5c.012-.049.028-.107.046-.171.119-.438.2-.784.093-.927A.168.168,0,0,0,9.846.334c-.2,0-.3.228-.359.415C9.276.36,8.97-.1,8.747.015c-.1.05-.106.234-.017.548A.771.771,0,0,0,8.344.3a.211.211,0,0,0-.19.057c-.119.119,0,.346.158.557A.362.362,0,0,0,7.949.97L7.94.98,7.934.991a.258.258,0,0,0,.119.356A3.194,3.194,0,0,1,9,2.091,5.868,5.868,0,0,0,4.655,5.92a13.28,13.28,0,0,0-.37,5.127c.023.36.044.7.054,1.008a2.062,2.062,0,0,1-.6,1.683c-.915.817-2.636.571-3.463.453l-.035-.005H.234a.272.272,0,0,0-.22.154c-.048.119.007.269.166.459l.011.01a15.542,15.542,0,0,0,6.821,3.2v1.443c0,.29-.876.389-1.733.447a.124.124,0,0,0,0,.247,12.4,12.4,0,0,1,1.359.122c.053.013.084.033.095.059.033.087-.1.29-.193.424l-.031.047c-.1.144-.24.4-.125.527a.162.162,0,0,0,.124.049.833.833,0,0,0,.356-.132c.54-.309.54-.309.751-.237l.093.033c.174.063.323.116.4.025s.008-.213-.069-.34l-.03-.047a1.935,1.935,0,0,1-.369-1.218V18.106a8.46,8.46,0,0,0,.954.056,5.967,5.967,0,0,0,1.1-.095c-.047.24-.165.828-.29,1.329a2.1,2.1,0,0,0,.6,1.721.309.309,0,0,0,.17.068.1.1,0,0,0,.03,0,.272.272,0,0,0,.165-.14.466.466,0,0,1,.351-.237,3.379,3.379,0,0,1,1.148.127.108.108,0,0,0,.1-.187c-.221-.178-.3-.3-.3-.356a.017.017,0,0,1,.005-.016,1.665,1.665,0,0,1,.537-.255.122.122,0,0,0-.02-.237,15.791,15.791,0,0,1-1.934-.378c-.262-.1-.24-.263-.161-.643.016-.078.033-.16.048-.248.059-.347.1-.547.122-.632a4.905,4.905,0,0,0,3.8-2.955A10.169,10.169,0,0,0,14.668,10.709Zm-6.007-2.9a.49.49,0,1,1,.49-.49A.49.49,0,0,1,8.661,7.811Zm2.984-1.839a.49.49,0,1,1-.49.49A.49.49,0,0,1,11.645,5.972ZM12.8,8.982c-.03.13-.437.263-1.141.263-.044,0-.089,0-.136,0a3.413,3.413,0,0,1-.1,1.225.1.1,0,0,1-.1.075.1.1,0,0,1-.083-.043c-.226-.322-.981-1.4-1.24-1.713A1.247,1.247,0,0,1,9.9,8.7l-.053-.053.074-.016c.047-.01,1.15-.246,1.316-.246a8,8,0,0,1,1.152.373c.146.053.267.1.332.119C12.81,8.906,12.8,8.965,12.8,8.982Z" transform="translate(0.002 0.002)" fill="#fff"/>
</svg>
