<svg width="27" height="27" viewBox="0 0 27 27" fill="none" xmlns="http://www.w3.org/2000/svg">
<path d="M0.894609 19.6665V15.4665H2.08261V19.6665H0.894609ZM4.99181 16.3605C5.24381 16.3605 5.47181 16.4125 5.67581 16.5165C5.87981 16.6165 6.03981 16.7725 6.15581 16.9845C6.27581 17.1965 6.33581 17.4705 6.33581 17.8065V19.6665H5.19581V17.9925C5.19581 17.7605 5.14781 17.5925 5.05181 17.4885C4.95981 17.3805 4.82981 17.3265 4.66181 17.3265C4.54181 17.3265 4.43181 17.3545 4.33181 17.4105C4.23181 17.4625 4.15381 17.5445 4.09781 17.6565C4.04181 17.7685 4.01381 17.9145 4.01381 18.0945V19.6665H2.87381V16.4145H3.95981V17.3385L3.74981 17.0685C3.87381 16.8325 4.04381 16.6565 4.25981 16.5405C4.47581 16.4205 4.71981 16.3605 4.99181 16.3605ZM8.50355 19.7205C8.08755 19.7205 7.76355 19.6185 7.53155 19.4145C7.29955 19.2065 7.18355 18.8945 7.18355 18.4785V15.6885H8.32355V18.4665C8.32355 18.5825 8.35555 18.6745 8.41955 18.7425C8.48355 18.8065 8.56555 18.8385 8.66555 18.8385C8.80155 18.8385 8.91755 18.8045 9.01355 18.7365L9.29555 19.5345C9.19955 19.5985 9.08155 19.6445 8.94155 19.6725C8.80155 19.7045 8.65555 19.7205 8.50355 19.7205ZM6.70955 17.3865V16.5345H9.06755V17.3865H6.70955ZM11.3454 19.7205C10.9614 19.7205 10.6254 19.6485 10.3374 19.5045C10.0534 19.3565 9.83139 19.1565 9.67139 18.9045C9.51539 18.6485 9.43739 18.3585 9.43739 18.0345C9.43739 17.7105 9.51339 17.4225 9.66539 17.1705C9.82139 16.9145 10.0354 16.7165 10.3074 16.5765C10.5794 16.4325 10.8854 16.3605 11.2254 16.3605C11.5454 16.3605 11.8374 16.4265 12.1014 16.5585C12.3654 16.6865 12.5754 16.8765 12.7314 17.1285C12.8874 17.3805 12.9654 17.6865 12.9654 18.0465C12.9654 18.0865 12.9634 18.1325 12.9594 18.1845C12.9554 18.2365 12.9514 18.2845 12.9474 18.3285H10.3734V17.7285H12.3414L11.9094 17.8965C11.9134 17.7485 11.8854 17.6205 11.8254 17.5125C11.7694 17.4045 11.6894 17.3205 11.5854 17.2605C11.4854 17.2005 11.3674 17.1705 11.2314 17.1705C11.0954 17.1705 10.9754 17.2005 10.8714 17.2605C10.7714 17.3205 10.6934 17.4065 10.6374 17.5185C10.5814 17.6265 10.5534 17.7545 10.5534 17.9025V18.0765C10.5534 18.2365 10.5854 18.3745 10.6494 18.4905C10.7174 18.6065 10.8134 18.6965 10.9374 18.7605C11.0614 18.8205 11.2094 18.8505 11.3814 18.8505C11.5414 18.8505 11.6774 18.8285 11.7894 18.7845C11.9054 18.7365 12.0194 18.6645 12.1314 18.5685L12.7314 19.1925C12.5754 19.3645 12.3834 19.4965 12.1554 19.5885C11.9274 19.6765 11.6574 19.7205 11.3454 19.7205ZM13.491 19.6665V16.4145H14.577V17.3625L14.415 17.0925C14.511 16.8485 14.667 16.6665 14.883 16.5465C15.099 16.4225 15.361 16.3605 15.669 16.3605V17.3865C15.617 17.3785 15.571 17.3745 15.531 17.3745C15.495 17.3705 15.455 17.3685 15.411 17.3685C15.179 17.3685 14.991 17.4325 14.847 17.5605C14.703 17.6845 14.631 17.8885 14.631 18.1725V19.6665H13.491ZM18.2574 16.3605C18.5094 16.3605 18.7374 16.4125 18.9414 16.5165C19.1454 16.6165 19.3054 16.7725 19.4214 16.9845C19.5414 17.1965 19.6014 17.4705 19.6014 17.8065V19.6665H18.4614V17.9925C18.4614 17.7605 18.4134 17.5925 18.3174 17.4885C18.2254 17.3805 18.0954 17.3265 17.9274 17.3265C17.8074 17.3265 17.6974 17.3545 17.5974 17.4105C17.4974 17.4625 17.4194 17.5445 17.3634 17.6565C17.3074 17.7685 17.2794 17.9145 17.2794 18.0945V19.6665H16.1394V16.4145H17.2254V17.3385L17.0154 17.0685C17.1394 16.8325 17.3094 16.6565 17.5254 16.5405C17.7414 16.4205 17.9854 16.3605 18.2574 16.3605ZM22.0622 19.7205C21.6782 19.7205 21.3422 19.6485 21.0542 19.5045C20.7702 19.3565 20.5482 19.1565 20.3882 18.9045C20.2322 18.6485 20.1542 18.3585 20.1542 18.0345C20.1542 17.7105 20.2302 17.4225 20.3822 17.1705C20.5382 16.9145 20.7522 16.7165 21.0242 16.5765C21.2962 16.4325 21.6022 16.3605 21.9422 16.3605C22.2622 16.3605 22.5542 16.4265 22.8182 16.5585C23.0822 16.6865 23.2922 16.8765 23.4482 17.1285C23.6042 17.3805 23.6822 17.6865 23.6822 18.0465C23.6822 18.0865 23.6802 18.1325 23.6762 18.1845C23.6722 18.2365 23.6682 18.2845 23.6642 18.3285H21.0902V17.7285H23.0582L22.6262 17.8965C22.6302 17.7485 22.6022 17.6205 22.5422 17.5125C22.4862 17.4045 22.4062 17.3205 22.3022 17.2605C22.2022 17.2005 22.0842 17.1705 21.9482 17.1705C21.8122 17.1705 21.6922 17.2005 21.5882 17.2605C21.4882 17.3205 21.4102 17.4065 21.3542 17.5185C21.2982 17.6265 21.2702 17.7545 21.2702 17.9025V18.0765C21.2702 18.2365 21.3022 18.3745 21.3662 18.4905C21.4342 18.6065 21.5302 18.6965 21.6542 18.7605C21.7782 18.8205 21.9262 18.8505 22.0982 18.8505C22.2582 18.8505 22.3942 18.8285 22.5062 18.7845C22.6222 18.7365 22.7362 18.6645 22.8482 18.5685L23.4482 19.1925C23.2922 19.3645 23.1002 19.4965 22.8722 19.5885C22.6442 19.6765 22.3742 19.7205 22.0622 19.7205ZM25.6598 19.7205C25.2438 19.7205 24.9198 19.6185 24.6878 19.4145C24.4558 19.2065 24.3398 18.8945 24.3398 18.4785V15.6885H25.4798V18.4665C25.4798 18.5825 25.5118 18.6745 25.5758 18.7425C25.6398 18.8065 25.7218 18.8385 25.8218 18.8385C25.9578 18.8385 26.0738 18.8045 26.1698 18.7365L26.4518 19.5345C26.3558 19.5985 26.2378 19.6445 26.0978 19.6725C25.9578 19.7045 25.8118 19.7205 25.6598 19.7205ZM23.8658 17.3865V16.5345H26.2238V17.3865H23.8658ZM0.42 25.6665V21.4665H2.568C3.12 21.4665 3.532 21.5685 3.804 21.7725C4.076 21.9725 4.212 22.2365 4.212 22.5645C4.212 22.7805 4.154 22.9705 4.038 23.1345C3.926 23.2945 3.766 23.4225 3.558 23.5185C3.354 23.6105 3.11 23.6565 2.826 23.6565L2.946 23.3685C3.242 23.3685 3.5 23.4145 3.72 23.5065C3.94 23.5945 4.11 23.7245 4.23 23.8965C4.354 24.0645 4.416 24.2705 4.416 24.5145C4.416 24.8785 4.268 25.1625 3.972 25.3665C3.68 25.5665 3.252 25.6665 2.688 25.6665H0.42ZM1.596 24.8085H2.592C2.796 24.8085 2.95 24.7745 3.054 24.7065C3.162 24.6345 3.216 24.5265 3.216 24.3825C3.216 24.2385 3.162 24.1325 3.054 24.0645C2.95 23.9925 2.796 23.9565 2.592 23.9565H1.512V23.1345H2.412C2.612 23.1345 2.762 23.1005 2.862 23.0325C2.962 22.9645 3.012 22.8625 3.012 22.7265C3.012 22.5905 2.962 22.4905 2.862 22.4265C2.762 22.3585 2.612 22.3245 2.412 22.3245H1.596V24.8085ZM6.96333 25.6665V25.0605L6.88533 24.9105V23.7945C6.88533 23.6145 6.82933 23.4765 6.71733 23.3805C6.60933 23.2805 6.43533 23.2305 6.19533 23.2305C6.03933 23.2305 5.88133 23.2565 5.72133 23.3085C5.56133 23.3565 5.42533 23.4245 5.31333 23.5125L4.92933 22.7385C5.11333 22.6185 5.33333 22.5265 5.58933 22.4625C5.84933 22.3945 6.10733 22.3605 6.36333 22.3605C6.89133 22.3605 7.29933 22.4825 7.58733 22.7265C7.87933 22.9665 8.02533 23.3445 8.02533 23.8605V25.6665H6.96333ZM6.00333 25.7205C5.74333 25.7205 5.52333 25.6765 5.34333 25.5885C5.16333 25.5005 5.02533 25.3805 4.92933 25.2285C4.83733 25.0765 4.79133 24.9065 4.79133 24.7185C4.79133 24.5185 4.84133 24.3465 4.94133 24.2025C5.04533 24.0545 5.20333 23.9425 5.41533 23.8665C5.62733 23.7865 5.90133 23.7465 6.23733 23.7465H7.00533V24.3405H6.39333C6.20933 24.3405 6.07933 24.3705 6.00333 24.4305C5.93133 24.4905 5.89533 24.5705 5.89533 24.6705C5.89533 24.7705 5.93333 24.8505 6.00933 24.9105C6.08533 24.9705 6.18933 25.0005 6.32133 25.0005C6.44533 25.0005 6.55733 24.9705 6.65733 24.9105C6.76133 24.8465 6.83733 24.7505 6.88533 24.6225L7.04133 25.0425C6.98133 25.2665 6.86333 25.4365 6.68733 25.5525C6.51533 25.6645 6.28733 25.7205 6.00333 25.7205ZM10.8629 22.3605C11.1149 22.3605 11.3429 22.4125 11.5469 22.5165C11.7509 22.6165 11.9109 22.7725 12.0269 22.9845C12.1469 23.1965 12.2069 23.4705 12.2069 23.8065V25.6665H11.0669V23.9925C11.0669 23.7605 11.0189 23.5925 10.9229 23.4885C10.8309 23.3805 10.7009 23.3265 10.5329 23.3265C10.4129 23.3265 10.3029 23.3545 10.2029 23.4105C10.1029 23.4625 10.0249 23.5445 9.96891 23.6565C9.91291 23.7685 9.88491 23.9145 9.88491 24.0945V25.6665H8.74491V22.4145H9.83091V23.3385L9.62091 23.0685C9.74491 22.8325 9.91491 22.6565 10.1309 22.5405C10.3469 22.4205 10.5909 22.3605 10.8629 22.3605ZM13.8706 25.0665L13.9006 23.7045L15.2266 22.4145H16.5766L15.1066 23.9325L14.5246 24.4005L13.8706 25.0665ZM12.9226 25.6665V21.2145H14.0626V25.6665H12.9226ZM15.3106 25.6665L14.3146 24.4185L15.0226 23.5425L16.6906 25.6665H15.3106ZM17.0359 25.6665V22.4145H18.1759V25.6665H17.0359ZM17.6059 22.0545C17.3979 22.0545 17.2299 21.9965 17.1019 21.8805C16.9739 21.7645 16.9099 21.6205 16.9099 21.4485C16.9099 21.2765 16.9739 21.1325 17.1019 21.0165C17.2299 20.9005 17.3979 20.8425 17.6059 20.8425C17.8139 20.8425 17.9819 20.8985 18.1099 21.0105C18.2379 21.1185 18.3019 21.2585 18.3019 21.4305C18.3019 21.6105 18.2379 21.7605 18.1099 21.8805C17.9859 21.9965 17.8179 22.0545 17.6059 22.0545ZM21.0348 22.3605C21.2868 22.3605 21.5148 22.4125 21.7188 22.5165C21.9228 22.6165 22.0828 22.7725 22.1988 22.9845C22.3188 23.1965 22.3788 23.4705 22.3788 23.8065V25.6665H21.2388V23.9925C21.2388 23.7605 21.1908 23.5925 21.0948 23.4885C21.0028 23.3805 20.8728 23.3265 20.7048 23.3265C20.5848 23.3265 20.4748 23.3545 20.3748 23.4105C20.2748 23.4625 20.1968 23.5445 20.1408 23.6565C20.0848 23.7685 20.0568 23.9145 20.0568 24.0945V25.6665H18.9168V22.4145H20.0028V23.3385L19.7928 23.0685C19.9168 22.8325 20.0868 22.6565 20.3028 22.5405C20.5188 22.4205 20.7628 22.3605 21.0348 22.3605ZM24.7255 26.8845C24.4135 26.8845 24.1155 26.8485 23.8315 26.7765C23.5515 26.7045 23.3115 26.5985 23.1115 26.4585L23.5255 25.6605C23.6615 25.7685 23.8295 25.8525 24.0295 25.9125C24.2335 25.9765 24.4315 26.0085 24.6235 26.0085C24.9315 26.0085 25.1535 25.9405 25.2895 25.8045C25.4255 25.6725 25.4935 25.4785 25.4935 25.2225V24.8385L25.5535 23.9265L25.5475 23.0085V22.4145H26.6335V25.0725C26.6335 25.6885 26.4675 26.1445 26.1355 26.4405C25.8035 26.7365 25.3335 26.8845 24.7255 26.8845ZM24.5275 25.4985C24.2395 25.4985 23.9735 25.4345 23.7295 25.3065C23.4895 25.1745 23.2955 24.9925 23.1475 24.7605C23.0035 24.5245 22.9315 24.2465 22.9315 23.9265C22.9315 23.6065 23.0035 23.3305 23.1475 23.0985C23.2955 22.8625 23.4895 22.6805 23.7295 22.5525C23.9735 22.4245 24.2395 22.3605 24.5275 22.3605C24.8035 22.3605 25.0395 22.4165 25.2355 22.5285C25.4315 22.6365 25.5795 22.8065 25.6795 23.0385C25.7835 23.2705 25.8355 23.5665 25.8355 23.9265C25.8355 24.2865 25.7835 24.5825 25.6795 24.8145C25.5795 25.0465 25.4315 25.2185 25.2355 25.3305C25.0395 25.4425 24.8035 25.4985 24.5275 25.4985ZM24.7975 24.5925C24.9335 24.5925 25.0535 24.5645 25.1575 24.5085C25.2655 24.4525 25.3495 24.3745 25.4095 24.2745C25.4735 24.1745 25.5055 24.0585 25.5055 23.9265C25.5055 23.7945 25.4735 23.6785 25.4095 23.5785C25.3495 23.4785 25.2655 23.4025 25.1575 23.3505C25.0535 23.2945 24.9335 23.2665 24.7975 23.2665C24.6615 23.2665 24.5395 23.2945 24.4315 23.3505C24.3235 23.4025 24.2375 23.4785 24.1735 23.5785C24.1135 23.6785 24.0835 23.7945 24.0835 23.9265C24.0835 24.0585 24.1135 24.1745 24.1735 24.2745C24.2375 24.3745 24.3235 24.4525 24.4315 24.5085C24.5395 24.5645 24.6615 24.5925 24.7975 24.5925Z" fill="#F6821E"/>
<path d="M8.02635 13.2221H13C13 10.9148 13.4 6.22217 15 6.22217C16.4508 6.22217 14.7223 6.25738 13.3933 6.23003C13.2567 6.22721 13.1243 6.22457 13 6.22214C10.7611 6.25816 7.68342 7.65888 8.02635 13.2221Z" fill="#167FB8"/>
<path d="M17.5557 11H17.5557" stroke="#167FB8" stroke-width="0.75" stroke-linecap="round" stroke-linejoin="round"/>
<circle cx="13.8888" cy="2.44444" r="2.06944" fill="#167FB8" stroke="#167FB8" stroke-width="0.75"/>
<rect x="15.375" y="9.59692" width="4.25" height="3.25" rx="0.625" fill="#F6821E" stroke="#F6821E" stroke-width="0.75"/>
<path d="M16.001 9.22217V8.72217C16.001 7.89374 16.6725 7.22217 17.501 7.22217V7.22217C18.3294 7.22217 19.001 7.89374 19.001 8.72217V9.22217" stroke="#F6821E" stroke-width="0.75"/>
</svg>
