<svg xmlns="http://www.w3.org/2000/svg" width="26.088" height="27" viewBox="0 0 26.088 27">
  <g id="Group_120871" data-name="Group 120871" transform="translate(-9759.963 -4497.095)">
    <g id="layer1" transform="translate(9759.963 4497.095)">
      <path id="Path_16430" data-name="Path 16430" d="M18.341.1a4.253,4.253,0,0,0-.668.045c-.871.126-1.6.42-3.026.649A7.571,7.571,0,0,1,11.341.432,6.213,6.213,0,0,0,7.222.705a.658.658,0,0,0-.3.993L9.489,5.3a34.989,34.989,0,0,0-4,4.257C3.275,12.329,1,15.972,1,19.635A6.457,6.457,0,0,0,5.45,26.2c2.553.919,5.7.893,8.594.893s6.041.026,8.594-.893a6.457,6.457,0,0,0,4.45-6.568c0-3.663-2.275-7.306-4.492-10.073a34.989,34.989,0,0,0-4-4.257L21.169,1.7a.659.659,0,0,0-.317-1A7,7,0,0,0,18.341.1Zm-.447,1.386a4.858,4.858,0,0,1,1.483.289l-2.1,2.943H10.808L8.688,1.736a4.842,4.842,0,0,1,2.3.013,9.043,9.043,0,0,0,3.906.379C16.432,1.88,17.272,1.571,17.894,1.481ZM10.721,6.07h6.647a35.223,35.223,0,0,1,4.068,4.308c2.13,2.659,4.2,6.137,4.2,9.257,0,3.187-1.364,4.525-3.521,5.3s-5.175.8-8.073.8-5.916-.026-8.073-.8-3.521-2.114-3.521-5.3c0-3.119,2.073-6.6,4.2-9.257A35.223,35.223,0,0,1,10.721,6.07Zm2.6,6.1v1.356a2.119,2.119,0,0,0-2.174,2.035A2.119,2.119,0,0,0,13.319,17.6h1.449a.68.68,0,1,1,0,1.356H11.145v1.356h2.174v1.356h1.449V20.313a2.039,2.039,0,1,0,0-4.069H13.319a.68.68,0,1,1,0-1.356h3.623V13.531H14.769V12.174Z" transform="translate(-1 -0.095)" fill="#222"/>
    </g>
  </g>
</svg>
