<svg width="31" height="31" viewBox="0 0 31 31" fill="none" xmlns="http://www.w3.org/2000/svg">
<g clip-path="url(#clip0_1620_13)">
<path d="M1.8197 0.273438C1.50805 0.507663 1.29133 0.868342 1.29102 1.28444V29.7076C1.29102 30.1297 1.5079 30.4876 1.82206 30.7235L17.7586 15.4996L1.8197 0.273438Z" fill="#29B6F6"/>
<path d="M1.8197 0.273438C1.50805 0.507663 1.29133 0.868342 1.29102 1.28444V29.7076C1.29102 30.1297 1.5079 30.4876 1.82206 30.7235L17.7586 15.4996L1.8197 0.273438Z" fill="url(#paint0_linear_1620_13)"/>
<path d="M22.6681 10.8121C16.1363 7.18389 8.02227 2.73913 3.18183 0.149572C2.70967 -0.102233 2.1951 -0.0064462 1.82031 0.275318L17.7592 15.5014L22.6681 10.8121Z" fill="#00E676"/>
<path d="M22.6681 10.8121C16.1363 7.18389 8.02227 2.73913 3.18183 0.149572C2.70967 -0.102233 2.1951 -0.0064462 1.82031 0.275318L17.7592 15.5014L22.6681 10.8121Z" fill="url(#paint1_linear_1620_13)"/>
<path d="M1.82227 30.7239C2.03812 30.8861 2.29284 31 2.58289 31C2.78723 31 2.98842 30.9477 3.18079 30.8448C8.02059 28.2558 16.1322 23.8125 22.6632 20.1851L17.7588 15.5L1.82227 30.7239Z" fill="#F44336"/>
<path d="M1.82227 30.7239C2.03812 30.8861 2.29284 31 2.58289 31C2.78723 31 2.98842 30.9477 3.18079 30.8448C8.02059 28.2558 16.1322 23.8125 22.6632 20.1851L17.7588 15.5L1.82227 30.7239Z" fill="url(#paint2_linear_1620_13)"/>
<path d="M29.0497 14.3849C27.3112 13.4006 25.095 12.1613 22.6667 10.8125L17.7578 15.5019L22.6622 20.1869C25.0923 18.8372 27.3101 17.5971 29.0497 16.6124C29.4553 16.3828 29.7069 15.9563 29.7069 15.4983C29.7069 15.0404 29.4553 14.6139 29.0497 14.3849Z" fill="#FFEA00"/>
<path d="M29.0497 14.3849C27.3112 13.4006 25.095 12.1613 22.6667 10.8125L17.7578 15.5019L22.6622 20.1869C25.0923 18.8372 27.3101 17.5971 29.0497 16.6124C29.4553 16.3828 29.7069 15.9563 29.7069 15.4983C29.7069 15.0404 29.4553 14.6139 29.0497 14.3849Z" fill="url(#paint3_linear_1620_13)"/>
<path opacity="0.2" d="M3.08823 0.470602C9.77795 4.02284 22.6884 11.0737 29.1512 14.7055C29.3872 14.8377 29.5629 15.0398 29.6764 15.2719C29.6086 14.9031 29.3874 14.5732 29.0498 14.3826C22.6349 10.7508 9.82045 3.69993 3.18047 0.147686C2.38643 -0.275827 1.46726 0.26736 1.32031 1.06819C1.62352 0.457042 2.40204 0.107321 3.08823 0.470602Z" fill="white"/>
<path opacity="0.1" d="M3.08823 30.5278C9.77795 26.9756 22.6884 19.9247 29.1512 16.2929C29.3872 16.1607 29.5629 15.9587 29.6764 15.7266C29.6086 16.0953 29.3874 16.4252 29.0498 16.6158C22.6349 20.2476 9.82045 27.2985 3.18047 30.8507C2.38643 31.2743 1.46726 30.7311 1.32031 29.9302C1.62352 30.5414 2.40204 30.8911 3.08823 30.5278Z" fill="black"/>
<path d="M29.0505 14.3817C27.312 13.3974 8.02165 2.73545 3.18121 0.145678C2.70906 -0.106148 2.19449 -0.0103533 1.8197 0.271433C1.50805 0.505677 1.29133 0.866385 1.29102 1.28252V29.7079C1.29102 30.13 1.5079 30.488 1.82206 30.7239C2.03792 30.8861 2.29264 31 2.58268 31C2.78703 31 2.98822 30.9476 3.18058 30.8448C8.02039 28.2556 27.3109 17.5942 29.0505 16.6094C29.456 16.3798 29.7077 15.9532 29.7077 15.4952C29.7077 15.0372 29.456 14.6107 29.0505 14.3817Z" fill="url(#paint4_linear_1620_13)"/>
</g>
<defs>
<linearGradient id="paint0_linear_1620_13" x1="9.5248" y1="2.70284" x2="9.5248" y2="23.2537" gradientUnits="userSpaceOnUse">
<stop stop-color="#00B8D4" stop-opacity="0"/>
<stop offset="1" stop-color="white" stop-opacity="0.3"/>
</linearGradient>
<linearGradient id="paint1_linear_1620_13" x1="0.473797" y1="3.16293" x2="21.6338" y2="13.03" gradientUnits="userSpaceOnUse">
<stop stop-color="white" stop-opacity="0.2"/>
<stop offset="1" stop-color="white" stop-opacity="0"/>
</linearGradient>
<linearGradient id="paint2_linear_1620_13" x1="9.66721" y1="22.879" x2="14.8182" y2="28.03" gradientUnits="userSpaceOnUse">
<stop stop-opacity="0.1"/>
<stop offset="1" stop-opacity="0"/>
</linearGradient>
<linearGradient id="paint3_linear_1620_13" x1="20.8769" y1="12.3827" x2="27.1118" y2="18.6176" gradientUnits="userSpaceOnUse">
<stop stop-opacity="0.05"/>
<stop offset="1" stop-opacity="0"/>
</linearGradient>
<linearGradient id="paint4_linear_1620_13" x1="-4.02093" y1="12.4112" x2="24.9714" y2="25.9305" gradientUnits="userSpaceOnUse">
<stop stop-color="white" stop-opacity="0.2"/>
<stop offset="1" stop-color="white" stop-opacity="0"/>
</linearGradient>
<clipPath id="clip0_1620_13">
<rect width="31" height="31" fill="white"/>
</clipPath>
</defs>
</svg>
