<svg xmlns="http://www.w3.org/2000/svg" width="26.146" height="26.585" viewBox="0 0 26.146 26.585">
  <g id="Group_120873" data-name="Group 120873" transform="translate(-9902.113 -4498.209)">
    <g id="Group_120869" data-name="Group 120869" transform="translate(-8.272 -1)">
      <g id="layer1" transform="translate(9918.462 4509.821)">
        <path id="Path_16430" data-name="Path 16430" d="M7.962.1a1.6,1.6,0,0,0-.268.019c-.35.054-.643.18-1.215.278A2.857,2.857,0,0,1,5.152.24,2.345,2.345,0,0,0,3.5.357a.291.291,0,0,0-.122.426L4.408,2.33A14.636,14.636,0,0,0,2.8,4.156,7.719,7.719,0,0,0,1,8.477a2.766,2.766,0,0,0,1.787,2.817,9.939,9.939,0,0,0,3.45.383,9.939,9.939,0,0,0,3.45-.383,2.766,2.766,0,0,0,1.787-2.817,7.719,7.719,0,0,0-1.8-4.321,14.636,14.636,0,0,0-1.6-1.826L9.1.783A.291.291,0,0,0,8.97.355,2.661,2.661,0,0,0,7.962.1ZM7.782.69a1.841,1.841,0,0,1,.6.124L7.536,2.076h-2.6L4.087.8A1.823,1.823,0,0,1,5.008.8,3.412,3.412,0,0,0,6.577.967C7.2.861,7.533.728,7.782.69ZM4.9,2.658H7.571A14.719,14.719,0,0,1,9.2,4.506a7.335,7.335,0,0,1,1.688,3.971,2.085,2.085,0,0,1-1.414,2.274,9.8,9.8,0,0,1-3.241.344A9.8,9.8,0,0,1,3,10.751,2.085,2.085,0,0,1,1.582,8.477,7.335,7.335,0,0,1,3.27,4.506,14.72,14.72,0,0,1,4.9,2.658ZM5.946,5.277v.582a.873.873,0,1,0,0,1.746h.582a.291.291,0,1,1,0,.582H5.073v.582h.873V9.35h.582V8.768a.873.873,0,1,0,0-1.746H5.946a.291.291,0,1,1,0-.582H7.4V5.859H6.528V5.277Z" transform="translate(-1 -0.095)" fill="#222" stroke="#222" stroke-width="0.4"/>
      </g>
      <g id="_371-Home" data-name="371-Home" transform="translate(9910.916 4499.959)">
        <path id="Path_16434" data-name="Path 16434" d="M1,13.542,13.542,1,26.085,13.542" transform="translate(-1 -1)" fill="none" stroke="#000" stroke-linejoin="round" stroke-width="1.5"/>
        <path id="Path_16435" data-name="Path 16435" d="M23.4,12V27.887H5V12" transform="translate(-1.655 -2.802)" fill="none" stroke="#000" stroke-linejoin="round" stroke-width="1.5"/>
      </g>
    </g>
  </g>
</svg>
