<svg xmlns="http://www.w3.org/2000/svg" width="17.208" height="17.29" viewBox="0 0 17.208 17.29">
  <path id="Whatsapp" d="M.057,17.29l1.215-4.44A8.567,8.567,0,1,1,4.6,16.1L.057,17.29ZM4.81,14.547a7.1,7.1,0,1,0-1.976-1.921l-.72,2.628,2.7-.707Zm8.2-3.936c-.053-.089-.2-.143-.411-.25s-1.266-.625-1.463-.7-.339-.107-.482.107-.553.7-.678.839-.25.161-.464.053A5.843,5.843,0,0,1,7.794,9.6,6.444,6.444,0,0,1,6.6,8.118c-.125-.214-.013-.33.094-.437s.214-.25.321-.375a1.4,1.4,0,0,0,.216-.357.394.394,0,0,0-.018-.375c-.054-.107-.482-1.161-.66-1.589s-.351-.361-.482-.367l-.411-.007a.784.784,0,0,0-.571.268,2.4,2.4,0,0,0-.749,1.786,4.166,4.166,0,0,0,.874,2.215,9.545,9.545,0,0,0,3.657,3.233,12.387,12.387,0,0,0,1.22.451,2.943,2.943,0,0,0,1.349.085,2.205,2.205,0,0,0,1.445-1.018,1.784,1.784,0,0,0,.125-1.019Z" transform="translate(-0.057)" fill="#fff"/>
</svg>
